<?xml version="1.0" encoding="UTF-8"?>
<svg id="Layer_1" data-name="Layer 1" xmlns="http://www.w3.org/2000/svg" viewBox="0 0 24 24">
  <defs>
    <style>
      .cls-1 {
        stroke-width: 0px;
      }
    </style>
  </defs>
  <path class="cls-1" d="m1.16,20.38c0-5.57,0-11.15,0-16.72,0-.01.02-.02.02-.04.14-.91.89-1.57,1.94-1.57,5.94,0,11.88,0,17.82,0,.19,0,.38.01.57.06.88.24,1.38.92,1.38,1.87,0,5.35,0,10.71,0,16.06,0,1.15-.76,1.93-1.91,1.93-5.97,0-11.94,0-17.91,0-.51,0-.97-.15-1.35-.51-.32-.3-.47-.68-.56-1.09ZM12.02,2.97c-2.95,0-5.9,0-8.85,0-.1,0-.2,0-.3,0-.39.03-.72.33-.79.71-.02.12-.03.24-.03.36,0,5.31,0,10.62,0,15.93,0,.11,0,.21.02.32.06.39.29.64.66.74.13.04.27.03.4.03,5.92,0,11.84,0,17.76,0,.09,0,.18,0,.28,0,.38-.03.71-.33.78-.7.02-.13.03-.27.03-.4,0-4.38,0-8.77,0-13.15,0-.93.01-1.87,0-2.8,0-.22-.07-.47-.18-.66-.18-.32-.51-.38-.87-.38-2.97,0-5.94,0-8.91,0Z"/>
  <path class="cls-1" d="m12,6.59c-2.8,0-5.6,0-8.4,0-.1,0-.21,0-.31-.03-.21-.06-.32-.24-.31-.45.01-.21.16-.37.37-.4.08-.01.17-.01.25-.01,5.62,0,11.23,0,16.85,0,.06,0,.13,0,.19,0,.26.02.43.19.43.43,0,.24-.16.42-.41.46-.08.01-.16,0-.23,0-2.81,0-5.62,0-8.42,0Z"/>
  <path class="cls-1" d="m9.3,14.29h-1.8c0,.08-.01.15-.01.22,0,.37,0,.75,0,1.12,0,.26-.2.45-.44.45-.23,0-.45-.18-.45-.43,0-1.16-.03-2.32.04-3.48.05-.87.92-1.56,1.8-1.53.92.03,1.72.75,1.75,1.64.04,1.11.02,2.22.02,3.33,0,.27-.21.47-.45.46-.24,0-.43-.19-.44-.46-.01-.37,0-.74,0-1.1,0-.08,0-.15,0-.24Zm0-.92c0-.34.02-.67,0-1-.04-.44-.4-.77-.85-.8-.41-.03-.84.27-.9.68-.06.36-.04.74-.06,1.12h1.82Z"/>
  <path class="cls-1" d="m12.02,14.27c0,.47,0,.9,0,1.33,0,.36-.29.57-.59.46-.17-.06-.27-.18-.29-.35-.01-.08-.01-.17-.01-.25,0-1.39,0-2.77,0-4.16,0-.49.14-.63.63-.64.38,0,.76,0,1.15,0,.82,0,1.36.52,1.38,1.34.01.42.02.85-.05,1.27-.1.6-.57.97-1.18,1-.33.02-.66,0-1.03,0Zm0-.89c.33,0,.64,0,.95,0,.24,0,.39-.15.4-.41.01-.33.01-.66,0-1,0-.21-.12-.36-.33-.37-.33-.02-.67,0-1.01,0v1.79Z"/>
  <path class="cls-1" d="m15.63,15.2v-3.63c-.14,0-.27,0-.4,0-.29-.01-.49-.2-.49-.45,0-.26.2-.45.49-.45.57,0,1.15,0,1.72,0,.3,0,.49.19.5.44,0,.26-.2.45-.5.46-.12,0-.24,0-.38,0v3.63c.14,0,.28,0,.42,0,.27.02.45.2.46.44,0,.25-.18.45-.46.46-.59.01-1.19,0-1.78,0-.28,0-.47-.2-.47-.45,0-.25.19-.43.47-.45.13,0,.27,0,.42,0Z"/>
  <path class="cls-1" d="m4.08,4.78c-.09,0-.18,0-.28-.02-.22-.03-.37-.2-.38-.42-.01-.2.11-.41.32-.44.23-.03.47-.03.69,0,.22.03.34.23.33.45-.01.22-.17.38-.39.41-.1.01-.2,0-.3.01Z"/>
  <path class="cls-1" d="m6.36,4.78c-.09,0-.18,0-.28-.01-.23-.03-.38-.19-.39-.4-.02-.23.11-.43.34-.46.21-.03.42-.03.63,0,.23.03.38.23.37.45,0,.23-.17.4-.42.43-.08,0-.17,0-.25,0,0,0,0,0,0,0Z"/>
  <path class="cls-1" d="m19.93,4.78c-.09,0-.18,0-.28-.02-.21-.03-.36-.19-.38-.39-.02-.22.1-.43.32-.46.23-.03.47-.03.69,0,.22.03.35.24.33.45-.02.22-.17.38-.39.41-.1.01-.2.01-.3.01Z"/>
</svg>