<?xml version="1.0" encoding="UTF-8"?>
<svg id="Layer_1" data-name="Layer 1" xmlns="http://www.w3.org/2000/svg" viewBox="0 0 24 24">
  <defs>
    <style>
      .cls-1 {
        stroke-width: 0px;
      }
    </style>
  </defs>
  <path class="cls-1" d="m22.89,11.09c-.06.23-.1.47-.17.69-.26.83-.77,1.46-1.5,1.92-.16.1-.31.1-.44-.05-.11-.12-.11-.26-.01-.39.05-.06.13-.11.2-.16,1-.71,1.45-1.69,1.23-2.89-.21-1.16-.94-1.92-2.08-2.23-1.55-.43-3.17.6-3.49,2.18-.32,1.61.76,3.16,2.37,3.38.18.02.36.03.55.03.24,0,.38.11.38.3,0,.2-.13.33-.38.33-.8.03-1.53-.19-2.18-.66-.05-.04-.1-.07-.2-.14-.12.14-.24.28-.37.41-.34.34-.78.35-1.12,0-.14-.14-.27-.19-.46-.19-.37,0-.73-.02-1.1,0-.23.02-.45.09-.67.18-.23.09-.44.22-.65.34-.99.53-1.97,1.06-2.98,1.6.21.36.41.71.62,1.05.21.35.2.4-.09.69-.19.19-.38.37-.59.57.33.48.65.95.97,1.41.02.03.09.06.14.05.21-.01.37.06.51.21.17.18.35.35.52.52.27.28.28.6,0,.88-.5.51-1,1.01-1.51,1.51-.27.27-.59.27-.86,0-.19-.18-.37-.37-.55-.55-.16-.16-.22-.35-.18-.58.01-.08-.02-.18-.06-.24-.24-.35-.5-.7-.75-1.05-.15-.22-.15-.4,0-.52.17-.13.34-.07.51.16.25.35.5.7.73,1.03.33-.33.65-.65,1-1-.7-1.02-1.44-2.1-2.18-3.17-.5.17-.75.61-1.13.93.2.29.4.56.59.83.04.06.09.13.11.2.04.15-.02.28-.17.35-.15.07-.28.03-.38-.09-.14-.18-.27-.38-.41-.56-.06-.08-.12-.17-.22-.31-.1.12-.17.22-.25.31-.18.18-.4.25-.66.21-.07,0-.16.02-.22.07-.14.12-.26.26-.39.38-.31.29-.74.3-1.05,0-.81-.8-1.62-1.61-2.42-2.42-.31-.31-.29-.74.01-1.06.06-.07.13-.13.19-.19.17-.15.3-.3.25-.57-.04-.21.1-.39.25-.54.43-.43.87-.86,1.3-1.3.09-.09.17-.19.22-.3.96-1.77,1.91-3.55,2.87-5.31.25-.47.38-.95.35-1.48-.01-.14-.02-.28-.02-.42,0-.27-.05-.5-.26-.71-.27-.27-.25-.7.02-.98.29-.3.58-.6.88-.88.29-.28.72-.28,1.01,0,.25.24.49.48.73.73.14.15.14.35.01.47-.12.12-.31.11-.46-.02-.22-.22-.44-.43-.66-.66-.1-.11-.18-.1-.28,0-.23.24-.47.48-.72.72-.12.11-.11.19,0,.3.44.43.87.87,1.3,1.3,2.51,2.51,5.02,5.02,7.53,7.53.23.23.23.23.48,0,.09-.08.18-.16.27-.24-.13-.19-.26-.34-.33-.52-.16-.35-.28-.72-.42-1.08-.05-.13-.1-.27-.19-.36-1.92-1.93-3.85-3.86-5.78-5.79-.05-.05-.1-.1-.15-.15-.12-.15-.11-.32,0-.44.12-.12.3-.13.44,0,.23.21.45.43.66.66.09.1.16.1.27.04.18-.1.37-.21.57-.27.42-.13.82-.04,1.13.27.74.72,1.46,1.45,2.18,2.18.35.36.41.86.19,1.31-.08.18-.18.35-.28.54.25.24.49.49.74.73.04.04.09.09.16.15.03-.13.06-.25.08-.36.38-1.6,1.86-2.73,3.47-2.66,1.72.07,3.1,1.3,3.35,2.97,0,.05.03.1.04.14v.72ZM7.53,5.75s0,.08,0,.12c.04.66-.13,1.26-.45,1.84-.48.85-.93,1.72-1.39,2.58-.48.89-.96,1.78-1.44,2.68.03.03.05.06.07.09,1.04,1.04,2.07,2.07,3.1,3.11.1.1.17.07.27.02,1.73-.94,3.46-1.87,5.21-2.8.3-.16.63-.28.96-.35.29-.07.61-.05.88-.07-2.39-2.39-4.8-4.8-7.21-7.21Zm-3.7,7.75c-.38.38-.77.78-1.17,1.16-.15.14-.13.23,0,.36.67.66,1.34,1.33,2,2,.28.28.57.57.85.85.08.08.15.14.25.03.42-.42.83-.83,1.23-1.23-1.06-1.06-2.11-2.11-3.18-3.18Zm10.77-4.61c.29-.41.31-.67.04-.94-.69-.69-1.38-1.39-2.07-2.07-.22-.22-.42-.24-.69-.11-.09.05-.18.1-.26.14,1,1,2,2,2.99,2.98Zm-9.7,9.32c-.87-.88-1.72-1.73-2.6-2.6-.11.12-.23.26-.36.39-.08.08-.07.15,0,.23.78.78,1.55,1.55,2.33,2.33.09.09.17.08.25,0,.12-.12.25-.24.36-.35Zm6.05,2.01c-.5.5-.98.98-1.45,1.45.15.15.31.32.46.47.48-.48.97-.97,1.45-1.44-.15-.15-.31-.32-.46-.48Zm-1.69-4.16c-.22.12-.42.23-.64.35.27.39.52.76.77,1.11.17-.16.32-.3.48-.44-.2-.34-.4-.67-.6-1.02Z"/>
  <path class="cls-1" d="m22.89,5.72c-.1.17-.25.22-.45.21-1.46,0-2.93,0-4.39,0-.17,0-.31.04-.44.15-.43.33-.87.65-1.3.97-.13.09-.25.16-.41.08-.16-.08-.18-.22-.18-.38,0-.27,0-.53,0-.82-.21,0-.41,0-.6,0-.26,0-.38-.12-.38-.38,0-1.32,0-2.65,0-3.97,0-.17.08-.29.21-.39h7.95v4.52Zm-6.54.49c.09-.06.14-.09.19-.12.27-.2.55-.4.81-.61.16-.13.33-.18.54-.18,1.37,0,2.75,0,4.12,0h.23V1.84h-6.85v3.45c.21,0,.41,0,.61,0,.24,0,.35.11.36.35,0,.17,0,.35,0,.56Z"/>
  <path class="cls-1" d="m18.07,10.73c0-.49,0-.97,0-1.46,0-.35.23-.48.54-.31.87.48,1.73.97,2.59,1.46.32.18.32.46,0,.64-.86.49-1.72.97-2.58,1.45-.31.18-.55.04-.55-.32,0-.49,0-.97,0-1.46Zm2.4,0c-.61-.34-1.18-.66-1.75-.99v1.97c.59-.33,1.15-.65,1.75-.99Z"/>
  <path class="cls-1" d="m18.8,3.19c-.76,0-1.52,0-2.28,0-.11,0-.26-.05-.34-.12-.15-.15-.07-.41.14-.48.08-.03.17-.03.25-.03,1.49,0,2.99,0,4.48,0,.04,0,.08,0,.13,0,.21.01.35.15.34.32,0,.18-.14.31-.36.31-.79,0-1.58,0-2.37,0Z"/>
  <path class="cls-1" d="m17.96,3.93c.49,0,.97,0,1.46,0,.26,0,.39.11.39.31,0,.2-.14.32-.39.32-.98,0-1.96,0-2.93,0-.25,0-.38-.13-.38-.33,0-.19.14-.3.38-.3.49,0,.98,0,1.48,0Z"/>
</svg>