<?xml version="1.0" encoding="UTF-8"?>
<svg id="Layer_1" data-name="Layer 1" xmlns="http://www.w3.org/2000/svg" viewBox="0 0 24 24">
  <defs>
    <style>
      .cls-1 {
        stroke-width: 0px;
      }
    </style>
  </defs>
  <path class="cls-1" d="m19.11,1.16c.25.06.5.1.74.17.93.27,1.67.8,2.26,1.6-.17.12-.34.24-.5.36-1.32-1.78-3.63-1.87-5.05-.77-1.42,1.1-1.81,3.06-.91,4.6.9,1.54,2.8,2.15,4.44,1.47,1.5-.63,2.76-2.57,1.82-4.78.18-.08.35-.17.53-.26.51.82.68,2.54-.15,3.91-.52.85-1.24,1.46-2.18,1.8-.93.34-1.87.33-2.82.03.72.86,1.32,1.77,1.57,2.88.25,1.1.19,2.19-.19,3.26.1.02.19.04.26.06.47.14.76.45.87.92.11.47-.02.88-.38,1.19-.88.74-1.77,1.45-2.67,2.19-.13-.16-.26-.32-.4-.49.36-.29.7-.58,1.05-.86.5-.41,1.01-.82,1.51-1.23.32-.26.38-.58.18-.87-.2-.28-.54-.33-.88-.12-1.48.9-2.96,1.8-4.44,2.7-.17.1-.3.12-.49.05-1.09-.39-2.18-.77-3.28-1.15-.14-.05-.25-.05-.38.01-.21.1-.43.18-.67.27-.08-.19-.16-.38-.24-.59,1.44-.6,2.87-1.2,4.34-1.82-.12-.27-.2-.54-.34-.77-.2-.33-.61-.43-1-.29-.68.25-1.35.49-2.03.75-.17.07-.28.06-.42-.08-.48-.48-1.06-.81-1.74-.9-1.04-.14-1.81.32-2.37,1.16-.14.21-.27.3-.52.28-.24-.02-.48,0-.74,0v4.88c.08,0,.16,0,.24,0,1.56-.07,3.1.16,4.65.32,1.38.15,2.77.27,4.15.46.49.07.83-.05,1.19-.37.54-.49,1.13-.94,1.72-1.42.13.16.26.32.4.49-.38.31-.75.62-1.12.92-.4.33-.79.66-1.2.98-.08.07-.22.11-.32.1-1.62-.17-3.25-.35-4.87-.52-1.53-.16-3.06-.39-4.61-.32-.08,0-.15,0-.24,0v1.51H1.19v-8.88h2.67v1.21c.24,0,.45.01.66,0,.07,0,.14-.08.19-.14.6-.77,1.35-1.25,2.35-1.31.2-.01.41,0,.59,0,.05-.54.1-1.08.16-1.66.25.06.45.11.6.15-.03.54-.05,1.05-.08,1.56,0,.13.05.19.17.25.32.17.64.36.94.57.13.09.22.1.36.05.55-.21,1.1-.41,1.65-.61.86-.32,1.69.06,2.01.92.13.35.25.7.39,1.07-1.04.44-2.07.88-3.15,1.34.66.23,1.26.44,1.87.66.23.08.47.16.7.25.14.05.24.05.37-.03,1.36-.83,2.72-1.65,4.07-2.49.09-.06.19-.16.23-.26.75-1.82.55-3.53-.61-5.13-.43-.59-.84-1.19-1.26-1.78-.07-.1-.17-.16-.25-.26-.23-.27-.44-.55-.67-.82-.05-.06-.15-.13-.23-.13-1.22,0-2.45,0-3.67.01-.07,0-.18.06-.2.12-.26.94-.79,1.73-1.38,2.48-.41.51-.78,1.03-1.02,1.67-.2-.08-.39-.15-.6-.23.06-.15.1-.29.18-.41.32-.5.63-1,.98-1.48.43-.58.85-1.16,1.1-1.85.02-.07.04-.13.06-.2,0-.02,0-.04,0-.09h-.83v-.63h.79c-.44-1.03-.86-2.03-1.29-3.04.62-.07,1.18.01,1.64.43.28.25.61.38.98.28.23-.06.45-.2.64-.35.39-.29.81-.45,1.29-.36.28.05.54.19.8.3.09.04.16.11.25.18.03-.09.06-.15.08-.22.59-1.6,1.73-2.54,3.41-2.82.04,0,.08-.02.12-.04.28,0,.57,0,.85,0ZM3.22,22.24v-7.61h-1.39v7.61h1.39ZM14.69,6.76c-.06-.52-.15-.99-.16-1.48,0-.27-.07-.44-.29-.58-.25-.16-.47-.33-.78-.35-.38-.02-.65.18-.93.39-.68.51-1.45.5-2.14,0-.09-.06-.17-.13-.28-.21,0,.07,0,.09.01.11.28.67.56,1.34.86,2.01.03.06.13.11.21.12.33.01.66,0,1,0,.85,0,1.7,0,2.51,0Z"/>
  <path class="cls-1" d="m15.29,14.38v.64h-.62v-.58c-.3-.11-.57-.21-.88-.33.14-.21.25-.38.37-.56.27.2.56.23.87.21.33-.02.6-.28.65-.6.05-.33-.09-.53-.44-.68-.29-.12-.59-.24-.87-.38-.4-.2-.62-.54-.59-.99.04-.48.28-.84.74-1.02.04-.02.08-.03.13-.05v-.55h.62v.5c.24.11.45.21.7.33-.17.18-.3.33-.39.43-.28-.03-.52-.08-.75-.07-.24.01-.38.2-.42.44-.04.23.08.36.27.45.24.11.49.22.74.32.6.23.9.62.9,1.17,0,.58-.35,1.06-.91,1.28-.04.01-.08.03-.13.05Z"/>
  <path class="cls-1" d="m18.77,6.8c0-.7.51-1.23,1.14-1.19.08,0,.15.02.23.04.54.17.85.76.75,1.38-.09.55-.55.97-1.07.96-.58,0-1.05-.54-1.05-1.19Zm1.5.03c0-.34-.18-.58-.42-.59-.25,0-.45.25-.44.57,0,.07.01.14.04.21.07.22.23.35.41.33.22-.02.33-.17.39-.36.02-.06.02-.12.02-.16Z"/>
  <path class="cls-1" d="m18.6,4.01c0,.71-.54,1.25-1.19,1.18-.51-.05-.91-.52-.95-1.11-.03-.55.29-1.06.76-1.22.65-.21,1.33.3,1.37,1.04,0,.04,0,.07,0,.11Zm-1.5-.02c0,.33.19.57.43.57.24,0,.44-.24.43-.55,0-.07-.01-.14-.03-.21-.07-.22-.24-.36-.42-.35-.18.01-.35.18-.39.39-.01.05-.01.11-.02.15Z"/>
  <path class="cls-1" d="m18.15,7.52c-.21-.09-.39-.17-.59-.25.57-1.36,1.14-2.7,1.71-4.07.2.08.38.16.59.24-.57,1.36-1.14,2.71-1.71,4.07Z"/>
</svg>