<?xml version="1.0" encoding="UTF-8"?>
<svg id="Layer_1" data-name="Layer 1" xmlns="http://www.w3.org/2000/svg" viewBox="0 0 24 24">
  <defs>
    <style>
      .cls-1 {
        stroke-width: 0px;
      }
    </style>
  </defs>
  <path class="cls-1" d="m15.41,16.07c.8-.61,1.58-1.2,2.37-1.8.16-.12.32-.26.49-.37.59-.38,1.21-.4,1.82-.05.55.31.61.89.13,1.31-1.27,1.13-2.54,2.25-3.81,3.38-.55.49-1.11.97-1.66,1.47-.38.35-.81.51-1.32.51-1.65,0-3.3,0-4.95,0-.13,0-.27.01-.39.05-.38.13-.39.16-.32.55.05.25-.04.4-.29.45-.81.17-1.61.34-2.42.5-.24.05-.39-.05-.44-.29-.37-1.77-.74-3.54-1.1-5.31-.06-.28.03-.41.31-.47.76-.16,1.53-.32,2.29-.47.37-.08.47,0,.56.37,0,.04.02.08.03.14.06-.02.11-.04.16-.06.28-.13.56-.26.85-.38.64-.28,1.3-.3,1.96-.08,1.09.36,2.17.34,3.27.08.26-.06.53-.09.79-.11.64-.07,1.2.08,1.66.59Zm-7.85,4.04c.39-.26.81-.24,1.22-.24,1.56,0,3.11,0,4.67,0,.28,0,.53-.05.75-.24,1.86-1.65,3.72-3.3,5.59-4.94.14-.12.12-.2-.03-.28-.42-.22-.83-.18-1.21.1-.91.69-1.82,1.38-2.72,2.07-.06.05-.11.14-.11.22,0,.32-.16.56-.43.7-.17.09-.37.15-.56.18-1.02.19-2.03.37-3.05.56-.34.06-.5,0-.55-.21-.04-.23.09-.37.43-.43.72-.13,1.44-.26,2.16-.39.35-.06.71-.13,1.06-.21.31-.07.35-.19.17-.46-.19-.28-.46-.43-.78-.42-.36,0-.73.05-1.09.11-.76.13-1.51.31-2.28.18-.42-.07-.83-.17-1.23-.27-.51-.13-1.01-.18-1.51.03-.36.15-.7.32-1.05.48-.1.04-.13.09-.1.21.23,1.07.45,2.13.68,3.24Zm-.48.88c-.34-1.61-.66-3.19-1-4.79-.64.13-1.25.26-1.87.39.33,1.61.66,3.19,1,4.78.63-.13,1.24-.26,1.87-.39Z"/>
  <path class="cls-1" d="m18.09,10.35c-.09,2.57-1.94,4.66-4.48,5.04-2.83.42-5.51-1.64-5.87-4.48-.13-1.02.15-1.94.58-2.83.64-1.32,1.48-2.52,2.4-3.67.6-.76,1.25-1.49,1.88-2.23.19-.23.39-.23.59,0,1.46,1.63,2.84,3.32,3.92,5.23.43.75.8,1.52.94,2.38.03.19.03.38.05.57Zm-5.22-7.58c-.74.92-1.46,1.79-2.14,2.68-.73.95-1.39,1.95-1.9,3.04-.36.77-.58,1.56-.44,2.43.3,1.84,1.67,3.33,3.48,3.75,1.8.42,3.67-.29,4.74-1.82.64-.91.97-1.94.77-3.05-.1-.54-.32-1.08-.57-1.58-.64-1.31-1.51-2.48-2.41-3.61-.48-.61-.99-1.19-1.52-1.84Z"/>
  <path class="cls-1" d="m12.22,8.28c.15.05.41.2.67.21.26,0,.52-.18.78-.19.6-.02,1.06.27,1.32.82.26.54.22,1.09-.19,1.54-.54.6-1.13,1.16-1.71,1.73-.15.15-.31.13-.47-.02-.53-.52-1.07-1.04-1.58-1.59-.44-.47-.56-1.04-.29-1.64.25-.56.71-.83,1.46-.86Zm.7,3.38c.43-.43.89-.88,1.34-1.34.32-.32.32-.81.02-1.12-.3-.32-.77-.34-1.12-.06-.22.17-.32.17-.54,0-.35-.27-.8-.26-1.09.04-.3.3-.34.79-.04,1.11.46.48.95.92,1.44,1.38Z"/>
  <path class="cls-1" d="m9.47,9.32c-.33,0-.49-.23-.37-.47.25-.5.49-1.02.81-1.48.5-.75,1.06-1.46,1.6-2.18.15-.2.35-.24.51-.11.15.13.15.32,0,.52-.77.95-1.5,1.92-2.07,3-.09.16-.14.34-.24.49-.06.1-.17.18-.22.22Z"/>
  <path class="cls-1" d="m9.13,9.33c.18,0,.32.15.31.33,0,.18-.15.32-.33.32-.18,0-.32-.15-.31-.33,0-.18.15-.32.32-.32Z"/>
</svg>