<?xml version="1.0" encoding="UTF-8"?>
<svg id="Layer_1" data-name="Layer 1" xmlns="http://www.w3.org/2000/svg" viewBox="0 0 24 24">
  <defs>
    <style>
      .cls-1, .cls-2 {
        stroke-width: 0px;
      }

      .cls-2 {
        fill: #fff;
      }
    </style>
  </defs>
  <path class="cls-1" d="m5.57,1.11h12.99c0,.51,0,1.02.02,1.53.02,1.16.81,1.96,1.97,1.96.43,0,.86,0,1.29,0,.07,0,.15,0,.24.01v.26c0,5.68,0,11.36,0,17.04,0,.65-.29.94-.95.94-5.06,0-10.13,0-15.19,0-.07,0-.14,0-.21,0-.34-.02-.65-.26-.69-.58-.04-.31,0-.63,0-.97h.25c1.38,0,2.76,0,4.14,0,1.61,0,3.22,0,4.84,0,.51,0,.84-.3.84-.78,0-2.32,0-4.64,0-6.96,0-.43-.3-.75-.73-.79-.08,0-.17,0-.25,0-2.94,0-5.87,0-8.81,0-.09,0-.18,0-.3,0v-.29c0-3.44,0-6.87,0-10.31,0-.48.13-.84.58-1.04Zm7.96,6.59c2.17,0,4.34,0,6.51,0,.3,0,.46-.14.47-.38,0-.25-.17-.39-.47-.4-.03,0-.06,0-.08,0-4.29,0-8.57,0-12.86,0-.36,0-.55.13-.55.38,0,.26.18.39.56.39,2.14,0,4.29,0,6.43,0Zm0,3.11c-.81,0-1.61,0-2.42,0-1.38,0-2.76,0-4.14,0-.26,0-.42.15-.43.37,0,.23.16.39.42.4.04,0,.08,0,.13,0,4.29,0,8.57,0,12.86,0,.38,0,.56-.13.56-.4,0-.26-.18-.38-.55-.38-2.14,0-4.29,0-6.43,0Zm0-1.17c2.14,0,4.29,0,6.43,0,.08,0,.16,0,.23,0,.19-.03.33-.19.33-.38,0-.19-.14-.35-.33-.38-.06,0-.13,0-.19,0-4.31,0-8.61,0-12.92,0-.05,0-.1,0-.15,0-.22.02-.37.18-.37.39,0,.21.16.36.38.38.06,0,.13,0,.19,0,2.14,0,4.27,0,6.41,0Zm-1.94-3.87c1.5,0,3,0,4.5,0,.09,0,.19,0,.27-.03.19-.05.28-.19.28-.38,0-.19-.11-.32-.3-.36-.1-.02-.2-.02-.3-.02-2.96,0-5.91,0-8.87,0-.06,0-.11,0-.17,0-.27.01-.44.16-.44.38,0,.23.17.39.45.4.06,0,.11,0,.17,0,1.47,0,2.94,0,4.41,0Zm0-2.72c-1.46,0-2.93,0-4.39,0-.1,0-.2,0-.3,0-.2.02-.34.17-.35.36-.01.2.13.37.33.4.07.01.14,0,.21,0,3,0,6,0,9,0,.07,0,.14,0,.21,0,.2-.03.35-.21.33-.4-.01-.19-.16-.34-.35-.36-.07,0-.14,0-.21,0-1.49,0-2.99,0-4.48,0Zm6.79,9.69c-.54,0-1.07,0-1.61,0-.08,0-.17,0-.25.03-.19.05-.28.19-.27.38,0,.18.1.31.28.35.08.02.17.02.25.02,1.06,0,2.12,0,3.18,0,.09,0,.19,0,.27-.03.17-.05.26-.17.27-.34.01-.18-.07-.32-.24-.38-.08-.03-.18-.04-.27-.04-.54,0-1.07,0-1.61,0Zm-.01,6.61c.55,0,1.1,0,1.65,0,.31,0,.48-.14.48-.38,0-.25-.16-.39-.47-.4-.03,0-.06,0-.08,0-1.05,0-2.1,0-3.16,0-.08,0-.17,0-.25.02-.2.04-.31.21-.29.41.02.22.18.35.45.36.56,0,1.12,0,1.67,0Zm.01-3.89c.55,0,1.1,0,1.65,0,.3,0,.47-.14.47-.39,0-.24-.17-.38-.46-.38-1.11,0-2.22,0-3.33,0-.3,0-.47.15-.47.39,0,.24.17.38.46.38.56,0,1.12,0,1.67,0Zm0,1.17c-.56,0-1.12,0-1.67,0-.29,0-.45.14-.46.38,0,.24.17.39.45.39,1.12,0,2.23,0,3.35,0,.29,0,.46-.15.46-.39,0-.24-.17-.38-.46-.38-.56,0-1.12,0-1.67,0Zm0,4.65c.56,0,1.13.01,1.69,0,.13,0,.29-.08.37-.18.06-.08.06-.26.02-.37-.06-.17-.22-.22-.4-.22-1.12,0-2.23,0-3.35,0-.29,0-.46.14-.46.38,0,.25.16.39.47.39.55,0,1.1,0,1.65,0Z"/>
  <path class="cls-2" d="m5.57,1.11c-.46.2-.59.56-.58,1.04.01,3.44,0,6.87,0,10.31v.29c.12,0,.21,0,.3,0,2.94,0,5.87,0,8.81,0,.08,0,.17,0,.25,0,.43.04.73.35.73.79,0,2.32,0,4.64,0,6.96,0,.48-.33.78-.84.78-1.61,0-3.22,0-4.84,0-1.38,0-2.76,0-4.14,0h-.25c0,.34-.03.66,0,.97.04.32.36.56.69.58.07,0,.14,0,.21,0,5.06,0,10.13,0,15.19,0,.66,0,.95-.29.95-.94,0-5.68,0-11.36,0-17.04v-.26c-.09,0-.16-.01-.24-.01-.43,0-.86,0-1.29,0-1.15,0-1.95-.8-1.97-1.96,0-.51-.01-1.02-.02-1.53h4.33v21.77c-7.26,0-14.52,0-21.77,0,0-7.26,0-14.52,0-21.77,1.49,0,2.97,0,4.46,0ZM1.9,20.49h12.39v-6.95H1.9v6.95ZM21.4,3.82c-.67-.67-1.37-1.37-2.04-2.04,0,.29,0,.63,0,.97.01.56.43,1.02.98,1.07.37.03.74,0,1.06,0Z"/>
  <path class="cls-2" d="m13.53,7.71c-2.14,0-4.29,0-6.43,0-.38,0-.56-.13-.56-.39,0-.25.19-.38.55-.38,4.29,0,8.57,0,12.86,0,.03,0,.06,0,.08,0,.3,0,.47.15.47.4,0,.24-.17.38-.47.38-2.17,0-4.34,0-6.51,0Z"/>
  <path class="cls-2" d="m13.53,10.82c2.14,0,4.29,0,6.43,0,.37,0,.55.12.55.38,0,.27-.18.4-.56.4-4.29,0-8.57,0-12.86,0-.04,0-.08,0-.13,0-.26-.01-.43-.18-.42-.4,0-.22.17-.37.43-.37,1.38,0,2.76,0,4.14,0,.81,0,1.61,0,2.42,0Z"/>
  <path class="cls-2" d="m13.52,9.65c-2.14,0-4.27,0-6.41,0-.06,0-.13,0-.19,0-.22-.01-.38-.17-.38-.38,0-.21.15-.37.37-.39.05,0,.1,0,.15,0,4.31,0,8.61,0,12.92,0,.06,0,.13,0,.19,0,.19.02.33.18.33.38,0,.19-.13.36-.33.38-.08.01-.16,0-.23,0-2.14,0-4.29,0-6.43,0Z"/>
  <path class="cls-2" d="m11.58,5.77c-1.47,0-2.94,0-4.41,0-.06,0-.11,0-.17,0-.28,0-.46-.16-.45-.4,0-.23.17-.37.44-.38.06,0,.11,0,.17,0,2.96,0,5.91,0,8.87,0,.1,0,.2,0,.3.02.19.04.3.17.3.36,0,.19-.09.33-.28.38-.09.02-.18.03-.27.03-1.5,0-3,0-4.5,0Z"/>
  <path class="cls-2" d="m11.59,3.06c1.49,0,2.99,0,4.48,0,.07,0,.14,0,.21,0,.2.02.34.17.35.36.01.19-.13.37-.33.4-.07.01-.14,0-.21,0-3,0-6,0-9,0-.07,0-.14,0-.21,0-.2-.03-.34-.21-.33-.4.01-.19.16-.34.35-.36.1,0,.2,0,.3,0,1.46,0,2.93,0,4.39,0Z"/>
  <path class="cls-2" d="m18.39,12.75c.54,0,1.07,0,1.61,0,.09,0,.19,0,.27.04.17.06.25.2.24.38-.01.17-.1.29-.27.34-.09.02-.18.03-.27.03-1.06,0-2.12,0-3.18,0-.08,0-.17,0-.25-.02-.18-.04-.28-.17-.28-.35,0-.19.08-.33.27-.38.08-.02.17-.03.25-.03.54,0,1.07,0,1.61,0Z"/>
  <path class="cls-2" d="m18.38,19.36c-.56,0-1.12,0-1.67,0-.27,0-.43-.14-.45-.36-.02-.2.1-.36.29-.41.08-.02.17-.02.25-.02,1.05,0,2.1,0,3.16,0,.03,0,.06,0,.08,0,.31,0,.47.15.47.4,0,.24-.18.38-.48.38-.55,0-1.1,0-1.65,0Z"/>
  <path class="cls-2" d="m18.39,15.47c-.56,0-1.12,0-1.67,0-.3,0-.46-.14-.46-.38,0-.25.17-.39.47-.39,1.11,0,2.22,0,3.33,0,.29,0,.46.14.46.38,0,.25-.17.39-.47.39-.55,0-1.1,0-1.65,0Z"/>
  <path class="cls-2" d="m18.38,16.64c.56,0,1.12,0,1.67,0,.29,0,.46.14.46.38,0,.24-.17.39-.46.39-1.12,0-2.23,0-3.35,0-.29,0-.45-.15-.45-.39,0-.24.16-.38.46-.38.56,0,1.12,0,1.67,0Z"/>
  <path class="cls-2" d="m18.38,21.29c-.55,0-1.1,0-1.65,0-.31,0-.47-.14-.47-.39,0-.24.17-.38.46-.38,1.12,0,2.23,0,3.35,0,.17,0,.34.04.4.22.04.11.04.29-.02.37-.08.1-.24.18-.37.18-.56.02-1.13,0-1.69,0Z"/>
  <path class="cls-1" d="m1.9,20.49v-6.95h12.39v6.95H1.9Zm4.26-3.48c0,.28,0,.55,0,.83.02.84.71,1.51,1.55,1.51.83,0,1.53-.67,1.55-1.49.01-.56.01-1.12,0-1.68-.02-.84-.73-1.5-1.57-1.49-.83,0-1.51.68-1.53,1.51,0,.27,0,.54,0,.81Zm6.19.78c-.01.45-.33.76-.74.77-.42.01-.77-.29-.79-.7-.02-.54-.02-1.07,0-1.61,0-.41.24-.69.62-.77.35-.08.69.1.86.46.13.26.33.35.54.24.21-.1.27-.32.15-.58-.27-.62-.95-1-1.6-.9-.71.1-1.28.62-1.33,1.31-.05.67-.05,1.34,0,2.01.06.73.66,1.25,1.41,1.32.67.07,1.37-.37,1.57-1.05.09-.3.08-.64.08-.96,0-.19-.15-.3-.35-.31-.27,0-.54,0-.81,0-.22,0-.37.17-.38.38,0,.22.15.38.39.39.12,0,.24,0,.37,0Zm-8.52.78c0-.1,0-.17,0-.25,0-1.05,0-2.09,0-3.14,0-.31-.14-.48-.38-.49-.25,0-.39.17-.39.49,0,1.11,0,2.22,0,3.33,0,.52.31.83.83.84.47,0,.93,0,1.4,0,.07,0,.14,0,.21-.03.18-.05.27-.19.27-.36,0-.19-.1-.32-.29-.37-.09-.02-.18-.02-.27-.02-.45,0-.9,0-1.37,0Z"/>
  <path class="cls-1" d="m21.4,3.82c-.31,0-.69.02-1.06,0-.55-.04-.97-.51-.98-1.07,0-.34,0-.68,0-.97.67.67,1.37,1.37,2.04,2.04Z"/>
  <path class="cls-2" d="m6.16,17.01c0-.27,0-.54,0-.81.02-.83.7-1.5,1.53-1.51.84,0,1.55.65,1.57,1.49.01.56.01,1.12,0,1.68-.02.83-.72,1.49-1.55,1.49-.84,0-1.53-.68-1.55-1.51,0-.28,0-.55,0-.83Zm2.33.03c0-.25,0-.51,0-.76-.01-.46-.35-.81-.78-.81-.44,0-.77.35-.77.82,0,.49,0,.98,0,1.46,0,.48.32.81.76.82.45,0,.78-.33.8-.81,0-.24,0-.48,0-.72Z"/>
  <path class="cls-2" d="m12.35,17.8c-.13,0-.25,0-.37,0-.23-.01-.39-.17-.39-.39,0-.21.15-.37.38-.38.27,0,.54,0,.81,0,.19,0,.34.12.35.31,0,.32.01.66-.08.96-.19.67-.89,1.12-1.57,1.05-.75-.07-1.35-.59-1.41-1.32-.05-.67-.05-1.34,0-2.01.05-.69.62-1.21,1.33-1.31.65-.09,1.33.29,1.6.9.12.26.06.48-.15.58-.22.1-.41.02-.54-.24-.18-.36-.51-.53-.86-.46-.38.08-.61.36-.62.77,0,.54-.01,1.07,0,1.61.02.41.37.71.79.7.41-.01.73-.33.74-.77Z"/>
  <path class="cls-2" d="m3.83,18.57c.47,0,.92,0,1.37,0,.09,0,.19,0,.27.02.19.04.29.18.29.37,0,.18-.09.31-.27.36-.07.02-.14.03-.21.03-.47,0-.93,0-1.4,0-.52,0-.83-.32-.83-.84,0-1.11,0-2.22,0-3.33,0-.32.15-.5.39-.49.24,0,.38.18.38.49,0,1.05,0,2.09,0,3.14,0,.08,0,.15,0,.25Z"/>
  <path class="cls-1" d="m8.49,17.04c0,.24,0,.48,0,.72-.01.48-.34.82-.8.81-.44,0-.76-.35-.76-.82,0-.49,0-.98,0-1.46,0-.46.34-.81.77-.82.43,0,.77.34.78.81,0,.25,0,.51,0,.76Z"/>
</svg>