<?xml version="1.0" encoding="UTF-8"?>
<svg id="Layer_1" data-name="Layer 1" xmlns="http://www.w3.org/2000/svg" viewBox="0 0 24 24">
  <defs>
    <style>
      .cls-1 {
        stroke-width: 0px;
      }
    </style>
  </defs>
  <path class="cls-1" d="m19.79,14.36c.63.77.27,2.04-.81,2.46.48,1.21-.39,2.49-1.66,2.34-.31,1.17-.73,1.51-1.78,1.41-.01.04-.03.09-.04.14-.22.86-1.18,1.21-1.88.67-.71-.54-1.41-1.09-2.11-1.64-.08-.06-.16-.12-.24-.18-.61.71-1.61.69-2.12-.32-1.01.4-1.81-.18-2.06-1.02-1.2.4-2.39-.62-2.14-1.94-.08-.02-.15-.03-.23-.05-1.05-.3-1.43-1.49-.7-2.35.25-.3.35-.55.15-.88-.05-.09-.11-.19-.19-.24-.8-.53-1.61-1.06-2.41-1.59-.04-.02-.07-.05-.11-.07-.18-.13-.22-.31-.12-.47.11-.17.3-.21.49-.09.49.32.98.64,1.47.96.22.14.43.28.69.45-.02-.92.15-1.76.57-2.54.41-.78.99-1.4,1.76-1.88-.12-.13-.22-.24-.33-.36-1.1-1.27-2.2-2.54-3.3-3.81-.01-.02-.03-.03-.04-.05-.15-.18-.15-.37,0-.5.15-.14.35-.12.51.07.51.59,1.01,1.19,1.53,1.78.7.81,1.42,1.61,2.12,2.42.1.12.19.13.33.08.88-.31,1.77-.35,2.66-.07.08.03.2,0,.28-.03.22-.12.44-.26.65-.4.46-.32.95-.42,1.5-.33,1.27.2,2.55.37,3.82.55.42.06.84.14,1.26.19.07,0,.17-.06.22-.12.86-.97,1.71-1.94,2.57-2.92.39-.44.76-.89,1.14-1.34.12-.14.26-.21.44-.13.22.09.26.35.08.56-.51.6-1.02,1.2-1.54,1.8-.68.78-1.37,1.56-2.05,2.33-.03.04-.06.08-.09.11,2.1,1.28,2.9,3.14,2.48,5.56.34-.23.68-.46,1.03-.68.23-.15.46-.31.69-.46.21-.13.4-.11.52.06.11.17.06.36-.14.5-.79.53-1.58,1.05-2.36,1.58-.18.13-.33.31-.49.46Zm-7.94,1.25c.5.04.95.2,1.16.7.2.48.12.94-.24,1.35.93.73,1.84,1.44,2.76,2.16.05.04.11.07.17.08.32.1.65-.04.81-.34.18-.32.14-.71-.13-.93-.32-.26-.65-.51-.97-.77-.87-.68-1.75-1.36-2.62-2.04-.23-.18-.29-.38-.15-.55.13-.17.34-.16.57.02.07.05.14.11.21.16,1.19.94,2.39,1.88,3.58,2.82.19.15.41.24.67.2.37-.05.6-.28.72-.62.13-.36.08-.72-.21-.98-.38-.35-.77-.68-1.17-.99-.91-.72-1.83-1.42-2.74-2.13-.22-.17-.27-.37-.14-.54.13-.17.33-.17.55,0,.04.03.08.06.12.09,1.14.89,2.28,1.78,3.42,2.67.16.13.33.2.54.16.35-.08.73-.57.67-.93-.03-.16-.11-.35-.23-.44-1.33-1.01-2.67-2.01-4.02-3-.46-.34-.85-.76-1.1-1.27-.42-.85-1.21-1.07-2.02-1.33,0,.21,0,.38,0,.55,0,1.16-.98,2-2.12,1.78-.12-.02-.26-.14-.32-.25-.29-.58-.57-1.17-.84-1.76-.13-.29-.17-.59-.12-.91.06-.38.25-.68.54-.98-1.56-.19-2.77.35-3.69,1.55-.85,1.11-1.04,2.36-.67,3.77.37-.49.77-.86,1.37-.86.61,0,1.03.32,1.32.83,1.03-.67,2.49-.17,2.6,1.24,1.04-.1,1.72.55,1.73,1.49Zm7.42-1.62c.06-.09.12-.17.17-.25.49-.8.64-1.66.53-2.58-.18-1.63-1.42-3.1-3-3.49-.52-.13-1.07-.16-1.6-.24-1.11-.16-2.22-.31-3.33-.47-.29-.04-.56-.02-.81.15-.49.31-.98.62-1.46.93-.44.29-.57.76-.35,1.24.22.49.46.97.68,1.45.05.12.12.14.23.14.59-.01,1.06-.49,1.05-1.1,0-.3-.02-.59-.02-.89,0-.4.15-.54.54-.43.39.1.78.22,1.16.36.66.24,1.2.63,1.56,1.25.04.08.13.14.2.19.65.42,1.37.61,2.15.56.47-.03.94-.12,1.31-.45.21-.19.41-.21.55-.05.14.16.11.37-.1.55-.16.13-.33.28-.52.34-.37.12-.76.23-1.15.27-.39.04-.79-.02-1.19-.04,1.13.84,2.26,1.69,3.43,2.56Zm-12.65,3.66c.1-.06.3-.13.45-.26.16-.15.27-.35.41-.53.59-.75,1.18-1.5,1.75-2.27.11-.14.17-.35.17-.54.01-.35-.26-.65-.61-.75-.41-.12-.83.02-1.08.35-.14.19-.29.38-.43.56-.5.63-1,1.25-1.49,1.88-.24.3-.28.65-.1,1,.17.33.45.52.94.55Zm3.71-2.85c-.31-.03-.55.23-.75.47-.6.75-1.17,1.52-1.74,2.3-.22.3-.11.74.21.98.32.24.71.21.96-.11.55-.68,1.09-1.36,1.63-2.05.14-.18.27-.36.39-.55.29-.5-.05-1.05-.7-1.04Zm-5.29.8c.23.01.35-.13.48-.3.43-.55.88-1.07,1.31-1.62.08-.1.13-.27.11-.39-.13-.55-.83-.77-1.22-.36-.46.48-.88.99-1.3,1.51-.18.22-.17.49-.04.74.14.26.37.4.66.42Zm4.71,3.1c0,.34.18.6.39.67.22.07.42-.03.6-.28.19-.26.37-.53.58-.77.31-.39.64-.76.96-1.14.21-.25.2-.57-.01-.73-.25-.2-.63-.17-.82.06-.48.57-.96,1.14-1.42,1.72-.13.16-.21.37-.28.48Zm1.9.33c.82.63,1.63,1.26,2.45,1.88.17.13.36.08.52-.04.29-.22.3-.64,0-.88-.59-.47-1.19-.94-1.79-1.41-.17-.13-.34-.26-.51-.4-.23.29-.45.56-.68.85Z"/>
</svg>