<?xml version="1.0" encoding="UTF-8"?>
<svg id="Layer_1" data-name="Layer 1" xmlns="http://www.w3.org/2000/svg" viewBox="0 0 24 24">
  <defs>
    <style>
      .cls-1 {
        stroke-width: 0px;
      }
    </style>
  </defs>
  <path class="cls-1" d="m12.01,21.68c-.42,0-.85,0-1.27,0-1.06,0-1.76-.7-1.78-1.77-.01-1.08-1.22-1.79-2.19-1.28-.41.21-.82.3-1.27.19-.44-.1-.79-.35-1.02-.74-.5-.84-.99-1.68-1.46-2.54-.45-.83-.18-1.77.65-2.28.71-.44.95-1.3.54-2.01-.12-.2-.31-.39-.51-.52-.9-.59-1.14-1.51-.6-2.44.43-.74.85-1.48,1.28-2.22.53-.93,1.49-1.2,2.43-.69.29.16.6.2.92.18.2-.02.36.08.44.27.08.17.06.34-.07.47-.08.08-.2.14-.31.16-.51.09-.98-.01-1.43-.25-.51-.27-.9-.16-1.19.34-.43.74-.85,1.48-1.27,2.23-.27.48-.17.89.31,1.17,1.5.88,1.53,3.19.03,4.1-.5.31-.6.7-.31,1.2.43.75.85,1.5,1.28,2.24.28.48.7.61,1.18.34,1.52-.87,3.53.29,3.5,2.09,0,.52.31.83.83.84.87,0,1.74,0,2.61,0,.49,0,.78-.26.84-.74.04-.29.18-.46.41-.49.27-.03.5.18.5.48.01.8-.65,1.58-1.45,1.64-.53.04-1.07,0-1.61,0,0,0,0,.01,0,.02Z"/>
  <path class="cls-1" d="m12.03,2.36c.42,0,.85,0,1.27,0,1.07,0,1.77.7,1.78,1.76.02,1.09,1.21,1.8,2.19,1.29.4-.21.82-.31,1.27-.21.48.11.85.38,1.09.81.46.8.92,1.61,1.36,2.42.46.83.19,1.79-.62,2.29-1.02.63-1.02,1.99.01,2.62.81.5,1.08,1.45.62,2.29-.45.82-.92,1.64-1.4,2.45-.47.79-1.42,1.06-2.23.62-.39-.21-.78-.3-1.22-.18-.25.07-.48-.09-.55-.34-.06-.24.07-.48.34-.55.61-.16,1.19-.09,1.74.21.52.28.92.17,1.21-.34.43-.74.85-1.48,1.27-2.23.28-.49.18-.88-.3-1.17-1.54-.95-1.54-3.18,0-4.13.48-.29.58-.69.3-1.17-.43-.75-.85-1.5-1.28-2.24-.28-.48-.69-.6-1.18-.33-1.51.85-3.57-.28-3.55-2.09,0-.55-.31-.85-.86-.85-.86,0-1.71,0-2.57,0-.5,0-.79.25-.85.75-.04.31-.23.49-.49.47-.27-.02-.43-.24-.42-.56.03-.78.67-1.5,1.45-1.56.53-.04,1.07,0,1.61,0v-.02Z"/>
  <path class="cls-1" d="m9.18,9.57c0-1.61,1.3-2.91,2.91-2.91,1.61,0,2.91,1.31,2.9,2.92,0,1.58-1.32,2.89-2.9,2.89-1.61,0-2.92-1.3-2.92-2.91Zm4.9-.01c0-1.1-.89-1.98-1.99-1.99-1.1,0-2,.9-1.99,2,.01,1.11.9,1.99,2.01,1.98,1.09,0,1.97-.9,1.97-2Z"/>
  <path class="cls-1" d="m12.11,13.41c.62,0,1.23,0,1.85,0,1.24.02,2.23.96,2.28,2.15.01.34-.16.57-.44.59-.24.01-.43-.12-.48-.36-.03-.12-.02-.25-.05-.38-.14-.63-.67-1.08-1.32-1.09-1.24-.01-2.47-.01-3.71,0-.74,0-1.31.56-1.37,1.3-.02.23-.08.42-.31.51-.31.11-.61-.12-.61-.47,0-1.13.97-2.19,2.11-2.24.68-.03,1.37,0,2.06,0,0,0,0,0,0,0Z"/>
</svg>