<?xml version="1.0" encoding="UTF-8"?>
<svg id="Layer_1" data-name="Layer 1" xmlns="http://www.w3.org/2000/svg" viewBox="0 0 24 24">
  <defs>
    <style>
      .cls-1 {
        stroke-width: 0px;
      }
    </style>
  </defs>
  <path class="cls-1" d="m22.89,7.79c-.1.2-.26.26-.48.26-.87,0-1.73-.01-2.6,0-.27,0-.47-.05-.54-.38-.6.19-1.18.37-1.75.58-.59.22-1.21.15-1.83.17,0,.1,0,.17,0,.25,0,.62,0,1.24,0,1.86,0,.66-.43,1.1-1.09,1.13-.06,0-.13,0-.19,0-3.96,0-7.92,0-11.88,0-.15,0-.31,0-.46-.04-.47-.11-.81-.53-.81-1.02,0-2.18,0-4.37,0-6.55,0-.6.48-1.04,1.1-1.05,1.15,0,2.3,0,3.45,0,1.49,0,2.99,0,4.48,0,.11,0,.24-.06.33-.13.2-.15.39-.33.58-.49.62-.51,1.24-1.01,2.06-1.18.23,0,.45,0,.68,0,.04.01.08.03.12.04,1.31.17,2.62.34,3.93.5.43.05.86.1,1.3.16.07-.28.26-.34.5-.34.87,0,1.74,0,2.62,0,.21,0,.38.05.5.23v6ZM1.97,9.12c1.1.12,1.69.74,1.82,1.82.19,0,.36,0,.54,0,2.86,0,5.72,0,8.58,0,.12,0,.24.03.26-.17.05-.6.35-1.07.87-1.37.27-.15.58-.22.9-.33v-.65c-.36,0-.7,0-1.05,0-.75-.02-1.25-.68-1.06-1.37.13-.47.55-.79,1.07-.79.34,0,.69,0,1.03,0v-.72c-.5-.02-.92-.2-1.26-.54-.34-.34-.5-.77-.53-1.25H3.78c-.13,1.09-.73,1.69-1.82,1.81v3.57ZM11.62,2.95s.02.03.02.05c.96,0,1.91,0,2.87,0,.7,0,1.14.44,1.15,1.15,0,.48,0,.96,0,1.44,0,.21,0,.42,0,.66.15,0,.28-.01.4,0,.25.03.39.28.29.5-.08.17-.23.22-.4.22-.49,0-.99,0-1.48,0-.22,0-.44,0-.65,0-.19.01-.31.15-.32.34,0,.18.11.33.29.36.08.01.15.02.23.02.72,0,1.44-.01,2.16,0,.42,0,.82-.05,1.22-.19.55-.19,1.11-.36,1.67-.51.17-.04.21-.09.21-.25,0-1.3,0-2.59,0-3.89v-.22c-.09-.02-.17-.03-.25-.04-1.52-.19-3.04-.39-4.57-.58-.36-.04-.73-.1-1.09-.07-.73.07-1.21.6-1.76,1.01Zm8.4-.66v5.02h2.13V2.29h-2.13ZM3.03,3.73c-.26,0-.53-.02-.79.01-.1.01-.24.16-.26.26-.04.26-.01.52-.01.79.59.01,1.05-.44,1.06-1.05Zm0,7.19c.03-.58-.49-1.09-1.06-1.05,0,.25-.01.5,0,.75.01.16.11.28.28.29.26.01.51,0,.77,0ZM13.88,3.73c0,.6.49,1.09,1.06,1.05,0-.25.01-.5,0-.75-.01-.17-.13-.29-.3-.3-.24-.01-.49,0-.75,0Zm1.06,6.14c-.61,0-1.1.5-1.05,1.06.26,0,.52.01.77,0,.17-.01.27-.13.27-.3.01-.24,0-.49,0-.75Z"/>
  <path class="cls-1" d="m22.89,12.82c-.09.22-.27.28-.49.28-1.18,0-2.35,0-3.53,0h-.22s-.01.03-.02.05c.15.11.29.22.44.34.22.17.27.38.13.56-.14.17-.34.18-.56.02-.44-.33-.88-.66-1.32-.99-.16-.12-.25-.26-.18-.45.07-.2.23-.25.42-.25,1.63,0,3.25,0,4.88,0,.22,0,.36.08.45.28v.17Z"/>
  <path class="cls-1" d="m22.89,11.43c-.13.18-.3.23-.52.23-1.58,0-3.15,0-4.73,0-.04,0-.07,0-.11,0-.26-.01-.41-.14-.41-.35,0-.22.16-.36.43-.36,1.2,0,2.39,0,3.59,0,.08,0,.15,0,.23,0,0-.01.01-.03.02-.04-.17-.13-.35-.26-.52-.4-.14-.12-.18-.27-.1-.43.08-.16.21-.22.38-.19.06,0,.12.04.17.08.47.35.94.7,1.4,1.05.06.05.11.12.17.18v.25Z"/>
  <path class="cls-1" d="m12.94,16.85c.24-.07.48-.13.73-.2,1.1-.31,2.21-.63,3.31-.92.25-.07.54-.1.79-.06.75.12,1.15.9.83,1.62-.11.25-.3.5-.52.68-1.79,1.46-3.62,2.87-5.63,4.02-.52.3-1.09.52-1.64.75-.19.08-.42.09-.62.08-.95-.05-1.9-.12-2.85-.18-.77-.05-1.53-.11-2.3-.17-.11,0-.19,0-.23.14-.05.16-.19.22-.35.22-.94,0-1.89,0-2.83,0-.25,0-.39-.14-.39-.4,0-1.9,0-3.79,0-5.69,0-.27.13-.4.41-.4.93,0,1.86,0,2.79,0,.24,0,.38.12.42.35.39.07.73-.06,1.06-.21.48-.22.94-.48,1.43-.67.29-.11.62-.18.94-.19,1.04-.02,2.09,0,3.13,0,.93,0,1.32.31,1.53,1.23Zm-8.08.57v4.31c1.47.12,2.92.2,4.36.35.91.09,1.75-.05,2.53-.52.03-.02.06-.03.09-.05,1.02-.66,2.06-1.3,3.05-2,.91-.64,1.78-1.34,2.65-2.03.17-.13.32-.33.4-.53.13-.34-.07-.59-.43-.58-.14,0-.28.03-.41.07-1.44.4-2.87.8-4.31,1.21-.1.03-.19.08-.27.15-.25.23-.54.35-.88.35-.37,0-.73,0-1.1,0-.56,0-1.13,0-1.69,0-.29,0-.47-.22-.38-.47.07-.2.22-.25.42-.25.91,0,1.82,0,2.73,0,.39,0,.63-.28.57-.64-.04-.28-.26-.44-.61-.44-.82,0-1.64.04-2.45-.01-.87-.05-1.66.13-2.42.56-.56.32-1.15.61-1.84.53Zm-.76-.34H1.97v5.02h2.14v-5.02Z"/>
  <path class="cls-1" d="m8.45,9.49c-1.19,0-2.16-.97-2.16-2.16,0-1.19.98-2.16,2.17-2.16,1.19,0,2.17.98,2.16,2.16,0,1.19-.98,2.16-2.17,2.16Zm0-.72c.8,0,1.44-.63,1.45-1.43,0-.8-.64-1.45-1.44-1.45-.8,0-1.43.63-1.44,1.43,0,.81.63,1.45,1.44,1.45Z"/>
  <path class="cls-1" d="m21.45,6.25c0,.19-.17.36-.37.36-.2,0-.35-.17-.35-.37,0-.19.16-.34.35-.34.2,0,.37.17.36.36Z"/>
  <path class="cls-1" d="m3.04,17.8c.2,0,.36.15.36.35,0,.2-.16.36-.36.36-.19,0-.35-.16-.36-.35,0-.2.15-.36.35-.37Z"/>
</svg>