<?xml version="1.0" encoding="UTF-8"?>
<svg id="Layer_1" data-name="Layer 1" xmlns="http://www.w3.org/2000/svg" viewBox="0 0 24 24">
  <defs>
    <style>
      .cls-1 {
        stroke-width: 0px;
      }
    </style>
  </defs>
  <path class="cls-1" d="m1.16,20.09c.19-.83.53-1.6,1-2.32.94-1.45,2.23-2.49,3.82-3.15.07-.03.14-.06.23-.09-1.08-1.08-1.56-2.36-1.33-3.86.19-1.23.82-2.2,1.84-2.9,2.13-1.47,5.35-.72,6.44,1.92.6-.32,1.2-.65,1.81-.98-1.11-1.11-1.58-2.46-1.27-4.04.2-1.02.72-1.87,1.55-2.51,1.78-1.39,4.25-1.22,5.78.34,1.57,1.61,1.77,4.4-.16,6.24.23.11.45.2.66.31.32.18.64.36.95.56.44.29.55.79.28,1.2-.26.4-.76.5-1.19.22-.67-.44-1.37-.79-2.16-.96-2.21-.48-4.17.03-5.86,1.56-.05.05-.09.13-.1.2-.12,1.04-.56,1.92-1.31,2.64-.02.02-.03.04-.06.08.21.1.42.18.61.29.33.18.67.37.99.58.44.28.56.79.3,1.19-.26.41-.77.52-1.21.23-.67-.44-1.39-.8-2.18-.96-2.36-.48-4.42.12-6.16,1.79-.68.66-1.16,1.45-1.48,2.35-.24.68.14,1.23.87,1.23,2.4,0,4.8,0,7.19,0,.48,0,.81.24.91.66.12.51-.25,1-.77,1-2.5,0-5.01,0-7.51,0-1.01,0-1.71-.5-2.18-1.35-.14-.26-.2-.57-.29-.86,0-.2,0-.4,0-.59Zm10.61-8.75c0-1.45-1.18-2.63-2.63-2.62-1.45,0-2.63,1.18-2.63,2.63,0,1.44,1.19,2.63,2.63,2.63,1.45,0,2.63-1.19,2.63-2.64Zm6.15-8.44c-1.45,0-2.63,1.19-2.63,2.63,0,1.45,1.19,2.63,2.63,2.63,1.45,0,2.63-1.19,2.63-2.63,0-1.45-1.19-2.63-2.63-2.63Z"/>
  <path class="cls-1" d="m19.7,19.74v.89c0,.45,0,.89,0,1.34,0,.6-.3.89-.85.93-.53.04-.87-.47-.85-.92.02-.66,0-1.31,0-1.97v-.26c-.09,0-.16,0-.24,0-.69,0-1.39,0-2.08,0-.34,0-.6-.15-.76-.45-.15-.29-.14-.57.03-.85.17-.27.43-.4.75-.4.68,0,1.36,0,2.04,0,.08,0,.15,0,.26,0,0-.09,0-.16,0-.24,0-.67,0-1.34,0-2.01,0-.55.36-.93.86-.93.49,0,.84.38.84.92,0,.74,0,1.48,0,2.26.08,0,.16,0,.23,0,.71,0,1.41,0,2.12,0,.41,0,.74.3.82.7.07.38-.15.78-.52.92-.14.05-.29.07-.43.07-.73,0-1.46,0-2.22,0Z"/>
</svg>